Coordinates
version=1
nRows=18
nColumns=33
inDegrees=yes

Units are S.I. units (second, meters, Newtons, ...)
Angles are in degrees.

endheader
time	ground_thorax_rot_x	ground_thorax_rot_y	ground_thorax_rot_z	ground_thorax_tx	ground_thorax_ty	ground_thorax_tz	clav_prot_r	clav_elev_r	scapula_abduction_r	scapula_elevation_r	scapula_upward_rot_r	scapula_winging_r	shoulder_elv_r	plane_of_elev_r	axial_rot_r	elbow_flexion_r	pro_sup_r	wrist_flex_r	wrist_dev_r	clav_prot_l	clav_elev_l	scapula_abduction_l	scapula_elevation_l	scapula_upward_rot_l	scapula_winging_l	shoulder_elv_l	plane_of_elev_l	axial_rot_l	elbow_flexion_l	pro_sup_l	wrist_flex_l	wrist_dev_l	
0.1300	2.724630	-2.619794	1.185067	-0.161183	0.986710	0.003161	-6.593646	5.934061	-6.775289	8.925470	9.394331	-2.799227	42.902811	-39.642490	44.898304	73.956740	-2.927511	35.540721	-10.243504	-8.139799	-2.291382	11.780726	-5.540302	-4.271812	-2.510344	41.056539	-43.253527	-8.351429	74.416874	22.288540	-4.875107	-25.000000	
0.1400	2.427734	-2.400069	1.114367	-0.161130	0.986771	0.002915	-6.879390	5.215603	-6.904582	8.204948	9.552301	-2.779218	42.895167	-40.320673	44.827780	74.140460	-1.397486	34.283693	-10.397833	-8.092632	-1.921931	11.612030	-5.693412	-3.797436	-2.324972	40.583763	-42.974190	-8.772844	73.837285	21.156028	-5.631499	-25.000000	
0.1500	2.073611	-2.170019	1.064738	-0.161048	0.986837	0.002641	-7.209231	4.405326	-7.041252	7.377560	9.770458	-2.766480	42.901254	-41.096647	44.880097	74.355049	0.132003	33.040457	-10.536151	-8.040512	-1.449904	11.463098	-5.938974	-3.315378	-2.127359	40.114307	-42.602812	-9.163092	73.240266	20.005164	-6.362881	-25.000000	
0.1600	1.898603	-2.037161	1.047895	-0.161042	0.986876	0.002468	-7.396191	3.935100	-7.161509	6.927970	9.816430	-2.731604	42.854716	-41.445578	44.684585	74.410134	1.006536	32.302945	-10.633095	-8.026007	-1.286510	11.391639	-5.998039	-3.084764	-2.041416	39.805345	-42.422064	-9.366083	72.845173	19.339594	-6.802411	-25.000000	
0.1700	1.801546	-1.953852	1.053509	-0.161071	0.986904	0.002338	-7.519469	3.618879	-7.276014	6.649202	9.785608	-2.686067	42.781989	-41.584044	44.381492	74.391259	1.509221	31.862219	-10.701694	-8.030342	-1.257856	11.370371	-5.987181	-2.992579	-2.013607	39.592857	-42.304025	-9.440817	72.564540	18.939614	-7.068626	-25.000000	
0.1800	1.765948	-1.910241	1.067260	-0.161115	0.986914	0.002241	-7.591425	3.425869	-7.389834	6.510022	9.685798	-2.629092	42.682949	-41.541318	43.967348	74.320894	1.703433	31.676152	-10.749569	-8.050660	-1.340065	11.391907	-5.919330	-3.015642	-2.034136	39.464181	-42.225237	-9.391826	72.392563	18.755915	-7.195094	-24.999999	
0.1900	1.750852	-1.883352	1.073109	-0.161166	0.986917	0.002156	-7.638985	3.277654	-7.502468	6.427728	9.545234	-2.563739	42.568334	-41.406246	43.474840	74.236596	1.761185	31.622961	-10.792233	-8.072771	-1.464634	11.426986	-5.834692	-3.094841	-2.075494	39.383211	-42.138165	-9.258521	72.283241	18.663712	-7.263992	-24.999999	
0.2000	1.723012	-1.853246	1.060122	-0.161204	0.986904	0.002058	-7.685773	3.113095	-7.612882	6.334480	9.394795	-2.494640	42.449821	-41.262140	42.953307	74.175692	1.820760	31.601736	-10.842127	-8.086849	-1.572635	11.454632	-5.767662	-3.178886	-2.114367	39.318464	-42.007803	-9.081882	72.202095	18.563721	-7.340268	-24.999998	
0.2100	1.695292	-1.824043	1.038053	-0.161252	0.986863	0.001954	-7.716269	2.958063	-7.704245	6.254883	9.232077	-2.426275	42.335799	-41.105922	42.427402	74.136996	1.897523	31.604009	-10.904385	-8.086701	-1.673867	11.459765	-5.708684	-3.266244	-2.148920	39.266633	-41.863142	-8.892683	72.149388	18.457907	-7.433864	-24.999997	
0.2200	1.667809	-1.795278	1.006941	-0.161293	0.986810	0.001844	-7.730777	2.808386	-7.781961	6.189432	9.045881	-2.354305	42.227603	-40.945843	41.884766	74.113375	1.997994	31.638073	-10.991733	-8.071241	-1.772661	11.443802	-5.658409	-3.368315	-2.182435	39.225981	-41.702271	-8.678610	72.112812	18.344454	-7.554381	-24.999994	
0.2300	1.641249	-1.768216	0.980119	-0.161340	0.986749	0.001728	-7.723939	2.669474	-7.839538	6.144136	8.833673	-2.279983	42.130394	-40.791256	41.342907	74.098424	2.123740	31.704053	-11.107142	-8.034441	-1.864766	11.399321	-5.623324	-3.490924	-2.214362	39.196890	-41.532941	-8.451638	72.081468	18.223434	-7.703403	-24.999990	
0.2400	1.615524	-1.741323	0.964305	-0.161377	0.986687	0.001602	-7.699463	2.542159	-7.882115	6.118565	8.598602	-2.203328	42.045241	-40.652954	40.809739	74.089800	2.268774	31.797170	-11.251021	-7.979280	-1.949770	11.331595	-5.603674	-3.633824	-2.245282	39.177748	-41.360714	-8.217446	72.048291	18.094953	-7.878855	-24.999982	
0.2500	1.587233	-1.710296	0.977962	-0.161437	0.986602	0.001470	-7.638516	2.435810	-7.896237	6.133834	8.309206	-2.120090	41.975902	-40.535340	40.262225	74.095438	2.452782	31.934371	-11.447733	-7.882989	-2.014328	11.212637	-5.622533	-3.821435	-2.273109	39.175763	-41.185291	-7.972569	72.017334	17.936808	-8.111026	-24.999967	
0.2600	1.555231	-1.676120	1.007736	-0.161493	0.986513	0.001332	-7.554790	2.341488	-7.896995	6.176956	7.977326	-2.029735	41.915996	-40.433773	39.688457	74.110953	2.663128	32.101300	-11.686027	-7.759102	-2.066909	11.060119	-5.667059	-4.042547	-2.299918	39.187260	-41.005073	-7.712501	71.983542	17.751262	-8.388205	-24.999942	
0.2700	1.520182	-1.641869	1.050650	-0.161551	0.986409	0.001185	-7.454886	2.262501	-7.882775	6.240773	7.629110	-1.939422	41.864364	-40.343650	39.121243	74.141047	2.881394	32.279314	-11.943462	-7.616093	-2.106250	10.882341	-5.730442	-4.278205	-2.323151	39.210515	-40.827910	-7.460700	71.953871	17.547164	-8.687918	-24.999896	
0.2800	1.488748	-1.615823	1.082983	-0.161575	0.986313	0.001029	-7.371927	2.190453	-7.870706	6.289503	7.335823	-1.862781	41.817882	-40.261936	38.631252	74.189585	3.057059	32.428522	-12.173418	-7.492128	-2.149436	10.725102	-5.776308	-4.481061	-2.343793	39.235837	-40.663612	-7.247847	71.925328	17.356943	-8.954031	-24.999814	
0.2900	1.460937	-1.598310	1.104057	-0.161573	0.986229	0.000861	-7.308330	2.123206	-7.861512	6.319121	7.102641	-1.800777	41.776249	-40.183815	38.216469	74.255894	3.186057	32.544569	-12.371824	-7.389252	-2.197460	10.590690	-5.802364	-4.647969	-2.361918	39.263608	-40.511851	-7.075693	71.903525	17.181465	-9.180616	-24.999667	
0.3000	1.439055	-1.594279	1.095103	-0.161521	0.986181	0.000679	-7.284290	2.050253	-7.869268	6.306457	6.963558	-1.758210	41.734314	-40.099897	37.894104	74.332584	3.244060	32.603966	-12.510367	-7.330490	-2.263085	10.507172	-5.785454	-4.753051	-2.379267	39.287806	-40.373470	-6.951235	71.890459	17.039505	-9.332195	-24.999403	
